# xmcd
#
# Track frame offsets: 
#        150
#        15741
#        41207
#        64255
#
# Disc length: 1200 seconds
#
# Revision: 2
# Processed by: cddbd v1.5.2PL0 Copyright (c) Steve Scherf et al.
# Submitted via: ExactAudioCopyFreeDBPlugin 1.0
#
DISCID=3204ae04
DTITLE=Pet Shop Boys - I'm With Stupid [CD2)
DYEAR=2006
DGENRE=Electronic
TTITLE0=I'm With Stupid
TTITLE1=Resurrectionist (Goetz B. Extended Mix)
TTITLE2=Girls Don't Cry
TTITLE3=Data track
EXTD=
EXTT0=
EXTT1=
EXTT2=
EXTT3=
PLAYORDER=
